<svg xmlns="http://www.w3.org/2000/svg" viewBox="0 0 64 64" width="64" height="64">
  <defs>
    <linearGradient id="bg" x1="0" y1="0" x2="0" y2="1">
      <stop offset="0" stop-color="#fbe08a"/><stop offset="1" stop-color="#f4c531"/>
    </linearGradient>
  </defs>
  <rect width="64" height="64" rx="16" fill="#dbeefb"/>
  <path d="M32 8c2 0 3.6 4.2 5.6 6.2 2 2 6.4 2.4 7.3 4.6.9 2.2-2 5.6-1.6 8.3.4 2.7 3.7 5.1 3.2 7.4-.5 2.3-4.7 3-6.4 5-1.7 2-1.9 6.3-4.1 7.6-2.2 1.3-5.7-1-8.3-1s-6.1 2.3-8.3 1c-2.2-1.3-2.4-5.6-4.1-7.6-1.7-2-5.9-2.7-6.4-5-.5-2.3 2.8-4.7 3.2-7.4.4-2.7-2.5-6.1-1.6-8.3.9-2.2 5.3-2.6 7.3-4.6C28.4 12.2 30 8 32 8z" fill="url(#bg)" stroke="#e0a92c" stroke-width="1.5"/>
  <circle cx="26" cy="30" r="3.2" fill="#2b2b2b"/>
  <circle cx="38" cy="30" r="3.2" fill="#2b2b2b"/>
  <circle cx="27.2" cy="28.8" r="1" fill="#fff"/>
  <circle cx="39.2" cy="28.8" r="1" fill="#fff"/>
  <path d="M27 37c2.6 2.6 7.4 2.6 10 0" fill="none" stroke="#2b2b2b" stroke-width="2.4" stroke-linecap="round"/>
  <circle cx="21" cy="35" r="2.4" fill="#f4977f" opacity="0.7"/>
  <circle cx="43" cy="35" r="2.4" fill="#f4977f" opacity="0.7"/>
</svg>
